<svg width="2000" height="1000" viewBox="0 0 2000 1000" fill="none" xmlns="http://www.w3.org/2000/svg">
<g clip-path="url(#clip0_663_23)">
<rect width="2000" height="1000" fill="black"/>
<g opacity="0.5" filter="url(#filter0_f_663_23)">
<path d="M1063.12 701.432C958.473 711.942 886.67 676.159 902.743 621.508C918.816 566.857 1016.68 514.033 1121.33 503.523C1225.97 493.013 1297.78 528.796 1281.7 583.447C1265.63 638.098 1167.77 690.921 1063.12 701.432Z" fill="url(#paint0_linear_663_23)" fill-opacity="0.8"/>
<path d="M1033.09 661.056C1164.16 630.797 1279.78 646.877 1291.35 696.97C1302.91 747.063 1206.04 812.201 1074.97 842.459C943.911 872.718 828.287 856.638 816.722 806.545C805.158 756.452 902.03 691.314 1033.09 661.056Z" fill="url(#paint1_linear_663_23)"/>
<path d="M1200.82 716.947C1331.88 686.689 1447.51 702.768 1459.07 752.861C1470.64 802.954 1373.76 868.092 1242.7 898.35C1111.64 928.609 996.013 912.53 984.448 862.436C972.883 812.343 1069.76 747.205 1200.82 716.947Z" fill="url(#paint2_linear_663_23)"/>
</g>
<g opacity="0.5" filter="url(#filter1_f_663_23)">
<path d="M1186.54 392.313C1282.31 435.792 1326.42 502.802 1285.07 541.983C1243.72 581.165 1132.56 577.681 1036.8 534.202C941.031 490.723 896.919 423.713 938.27 384.531C979.621 345.35 1090.78 348.834 1186.54 392.313Z" fill="url(#paint3_linear_663_23)" fill-opacity="0.4"/>
<path d="M1192.22 442.309C1063.7 402.635 971.796 330.651 986.959 281.528C1002.12 232.404 1118.61 224.742 1247.13 264.415C1375.66 304.088 1467.56 376.073 1452.4 425.196C1437.23 474.32 1320.75 481.982 1192.22 442.309Z" fill="url(#paint4_linear_663_23)" fill-opacity="0.6"/>
<path d="M1075.27 309.728C946.742 270.055 854.843 198.071 870.006 148.947C885.169 99.8229 1001.65 92.1615 1130.18 131.835C1258.71 171.508 1350.61 243.492 1335.44 292.616C1320.28 341.739 1203.8 349.401 1075.27 309.728Z" fill="url(#paint5_linear_663_23)" fill-opacity="0.5"/>
</g>
<path d="M940.296 133L1210.75 289.148V601.444L940.296 757.592L669.84 601.444V289.148L940.296 133Z" fill="url(#paint6_angular_663_23)"/>
<rect x="802.519" y="298.333" width="569.481" height="569.481" fill="black"/>
<path d="M836.228 339.379H851.62L869.111 393.899L886.603 339.379H901.995L875.354 417.741H862.868L836.228 339.379ZM826.863 339.379H842.794L845.754 399.442V417.741H826.863V339.379ZM895.429 339.379H911.413V417.741H892.469V399.442L895.429 339.379Z" fill="white"/>
<path d="M977.45 403.209V417.741H935.686V403.209H977.45ZM942.413 339.379V417.741H923.523V339.379H942.413ZM972.068 370.487V384.534H935.686V370.487H972.068ZM977.611 339.379V353.965H935.686V339.379H977.611Z" fill="white"/>
<path d="M1049.3 375.869V408.053C1047.97 409.524 1045.93 411.103 1043.16 412.789C1040.44 414.44 1036.99 415.857 1032.83 417.041C1028.67 418.225 1023.77 418.817 1018.14 418.817C1012.93 418.817 1008.22 417.992 1003.98 416.341C999.749 414.655 996.107 412.197 993.057 408.968C990.044 405.703 987.711 401.72 986.061 397.02C984.446 392.284 983.639 386.866 983.639 380.767V376.407C983.639 370.308 984.464 364.89 986.115 360.154C987.765 355.418 990.079 351.435 993.057 348.206C996.071 344.941 999.606 342.465 1003.66 340.779C1007.75 339.092 1012.24 338.249 1017.11 338.249C1024.33 338.249 1030.19 339.397 1034.71 341.694C1039.23 343.954 1042.66 347.094 1044.99 351.112C1047.33 355.095 1048.74 359.705 1049.24 364.944H1031.11C1030.75 362.36 1030.07 360.172 1029.06 358.378C1028.09 356.548 1026.69 355.167 1024.86 354.234C1023.03 353.265 1020.67 352.781 1017.76 352.781C1015.5 352.781 1013.44 353.265 1011.57 354.234C1009.74 355.202 1008.18 356.673 1006.89 358.647C1005.6 360.584 1004.59 363.024 1003.88 365.966C1003.19 368.908 1002.85 372.353 1002.85 376.3V380.767C1002.85 384.677 1003.18 388.104 1003.82 391.046C1004.5 393.988 1005.51 396.446 1006.84 398.419C1008.2 400.357 1009.92 401.828 1012 402.833C1014.12 403.801 1016.61 404.286 1019.48 404.286C1021.49 404.286 1023.21 404.124 1024.65 403.801C1026.08 403.443 1027.27 403.012 1028.2 402.51C1029.17 401.971 1029.91 401.469 1030.41 401.003V388.84H1017.28V375.869H1049.3Z" fill="white"/>
<path d="M1093.54 355.848L1074.43 417.741H1054.14L1082.94 339.379H1095.8L1093.54 355.848ZM1109.36 417.741L1090.2 355.848L1087.73 339.379H1100.75L1129.7 417.741H1109.36ZM1108.61 388.517V403.102H1068.4V388.517H1108.61Z" fill="white"/>
<path d="M871.426 492.245H890.262C890.011 497.698 888.54 502.506 885.849 506.668C883.158 510.83 879.427 514.077 874.655 516.409C869.919 518.706 864.321 519.854 857.863 519.854C852.625 519.854 847.942 518.975 843.816 517.217C839.726 515.459 836.246 512.929 833.375 509.628C830.541 506.327 828.37 502.327 826.863 497.627C825.392 492.926 824.656 487.634 824.656 481.75V477.498C824.656 471.614 825.428 466.322 826.971 461.621C828.549 456.885 830.774 452.867 833.644 449.566C836.551 446.229 840.031 443.682 844.085 441.923C848.14 440.165 852.643 439.286 857.594 439.286C864.411 439.286 870.17 440.506 874.87 442.946C879.57 445.386 883.212 448.741 885.795 453.01C888.379 457.244 889.904 462.07 890.37 467.488H871.533C871.461 464.546 870.959 462.088 870.026 460.114C869.093 458.105 867.622 456.598 865.613 455.594C863.604 454.589 860.931 454.087 857.594 454.087C855.262 454.087 853.235 454.517 851.512 455.378C849.79 456.239 848.355 457.603 847.207 459.469C846.059 461.334 845.198 463.756 844.624 466.734C844.085 469.676 843.816 473.228 843.816 477.39V481.75C843.816 485.912 844.067 489.464 844.57 492.406C845.072 495.348 845.879 497.752 846.992 499.618C848.104 501.484 849.539 502.865 851.297 503.762C853.091 504.623 855.28 505.054 857.863 505.054C860.733 505.054 863.155 504.605 865.129 503.708C867.102 502.775 868.627 501.376 869.703 499.51C870.78 497.609 871.354 495.187 871.426 492.245Z" fill="white"/>
<path d="M899.196 440.416H930.035C936.063 440.416 941.301 441.313 945.75 443.107C950.199 444.901 953.626 447.557 956.03 451.073C958.47 454.589 959.689 458.93 959.689 464.097C959.689 468.582 958.99 472.331 957.59 475.345C956.191 478.359 954.236 480.853 951.724 482.826C949.248 484.764 946.36 486.36 943.059 487.616L936.87 491.114H910.983L910.875 476.529H930.035C932.439 476.529 934.43 476.099 936.009 475.238C937.588 474.377 938.772 473.157 939.561 471.578C940.386 469.963 940.799 468.044 940.799 465.819C940.799 463.559 940.386 461.621 939.561 460.007C938.736 458.392 937.516 457.154 935.901 456.293C934.323 455.432 932.367 455.002 930.035 455.002H918.087V518.778H899.196V440.416ZM942.09 518.778L924.761 484.118L944.781 484.01L962.327 517.97V518.778H942.09Z" fill="white"/>
<path d="M1025.03 504.246V518.778H983.262V504.246H1025.03ZM989.99 440.416V518.778H971.099V440.416H989.99ZM1019.64 471.524V485.571H983.262V471.524H1019.64ZM1025.19 440.416V455.002H983.262V440.416H1025.19Z" fill="white"/>
<path d="M1065.98 456.885L1046.88 518.778H1026.59L1055.38 440.416H1068.24L1065.98 456.885ZM1081.81 518.778L1062.65 456.885L1060.17 440.416H1073.19L1102.15 518.778H1081.81ZM1081.05 489.554V504.139H1040.85V489.554H1081.05Z" fill="white"/>
<path d="M1139.39 440.416V518.778H1120.5V440.416H1139.39ZM1162.97 440.416V455.002H1097.47V440.416H1162.97Z" fill="white"/>
<path d="M1191.06 440.416V518.778H1172.22V440.416H1191.06Z" fill="white"/>
<path d="M1234.01 500.317L1250.31 440.416H1271.47L1245.04 518.778H1231.37L1234.01 500.317ZM1219.21 440.416L1235.51 500.317L1238.26 518.778H1224.43L1198.16 440.416H1219.21Z" fill="white"/>
<path d="M1331.15 504.246V518.778H1289.39V504.246H1331.15ZM1296.11 440.416V518.778H1277.22V440.416H1296.11ZM1325.77 471.524V485.571H1289.39V471.524H1325.77ZM1331.31 440.416V455.002H1289.39V440.416H1331.31Z" fill="white"/>
<path d="M890.962 577.943V610.127C889.634 611.598 887.589 613.177 884.827 614.863C882.1 616.514 878.655 617.931 874.493 619.115C870.331 620.299 865.434 620.891 859.801 620.891C854.598 620.891 849.88 620.066 845.646 618.415C841.412 616.729 837.77 614.271 834.721 611.042C831.707 607.777 829.375 603.794 827.724 599.094C826.11 594.358 825.302 588.94 825.302 582.841V578.481C825.302 572.382 826.128 566.964 827.778 562.228C829.428 557.492 831.743 553.509 834.721 550.28C837.735 547.015 841.269 544.539 845.323 542.853C849.413 541.166 853.898 540.323 858.778 540.323C865.99 540.323 871.856 541.471 876.377 543.768C880.898 546.028 884.324 549.168 886.656 553.186C888.989 557.169 890.406 561.779 890.908 567.018H872.771C872.412 564.434 871.731 562.246 870.726 560.452C869.757 558.622 868.358 557.241 866.528 556.308C864.698 555.339 862.33 554.855 859.424 554.855C857.163 554.855 855.1 555.339 853.235 556.308C851.405 557.276 849.844 558.747 848.552 560.721C847.261 562.658 846.256 565.098 845.538 568.04C844.857 570.982 844.516 574.427 844.516 578.374V582.841C844.516 586.751 844.839 590.178 845.485 593.12C846.166 596.062 847.171 598.52 848.498 600.493C849.862 602.431 851.584 603.902 853.665 604.907C855.782 605.875 858.276 606.36 861.146 606.36C863.155 606.36 864.878 606.198 866.313 605.875C867.748 605.517 868.932 605.086 869.865 604.584C870.834 604.045 871.569 603.543 872.071 603.077V590.914H858.939V577.943H890.962Z" fill="white"/>
<path d="M901.995 541.453H932.834C938.861 541.453 944.1 542.35 948.549 544.144C952.998 545.938 956.424 548.594 958.828 552.11C961.268 555.626 962.488 559.967 962.488 565.134C962.488 569.619 961.788 573.368 960.389 576.382C958.99 579.396 957.034 581.89 954.523 583.863C952.047 585.801 949.159 587.397 945.858 588.653L939.669 592.151H913.781L913.674 577.566H932.834C935.237 577.566 937.229 577.136 938.807 576.275C940.386 575.414 941.57 574.194 942.36 572.615C943.185 571 943.597 569.081 943.597 566.856C943.597 564.596 943.185 562.658 942.36 561.044C941.534 559.429 940.314 558.191 938.7 557.33C937.121 556.469 935.166 556.039 932.834 556.039H920.886V619.815H901.995V541.453ZM944.889 619.815L927.559 585.155L947.58 585.047L965.125 619.007V619.815H944.889Z" fill="white"/>
<path d="M1040.2 579.073V582.249C1040.2 588.24 1039.36 593.622 1037.67 598.394C1036.02 603.131 1033.67 607.185 1030.62 610.558C1027.57 613.894 1023.97 616.46 1019.81 618.254C1015.64 620.012 1011.05 620.891 1006.03 620.891C1000.97 620.891 996.34 620.012 992.143 618.254C987.981 616.46 984.357 613.894 981.271 610.558C978.221 607.185 975.853 603.131 974.167 598.394C972.516 593.622 971.691 588.24 971.691 582.249V579.073C971.691 573.081 972.516 567.699 974.167 562.927C975.853 558.155 978.203 554.101 981.217 550.764C984.267 547.392 987.873 544.826 992.035 543.068C996.233 541.274 1000.86 540.377 1005.92 540.377C1010.94 540.377 1015.54 541.274 1019.7 543.068C1023.9 544.826 1027.52 547.392 1030.57 550.764C1033.62 554.101 1035.99 558.155 1037.67 562.927C1039.36 567.699 1040.2 573.081 1040.2 579.073ZM1021.04 582.249V578.966C1021.04 575.091 1020.7 571.682 1020.02 568.74C1019.38 565.762 1018.41 563.268 1017.11 561.259C1015.82 559.25 1014.23 557.743 1012.32 556.738C1010.46 555.698 1008.32 555.177 1005.92 555.177C1003.41 555.177 1001.22 555.698 999.354 556.738C997.489 557.743 995.928 559.25 994.672 561.259C993.416 563.268 992.465 565.762 991.82 568.74C991.21 571.682 990.905 575.091 990.905 578.966V582.249C990.905 586.088 991.21 589.496 991.82 592.474C992.465 595.416 993.416 597.91 994.672 599.955C995.964 602 997.542 603.543 999.408 604.584C1001.31 605.624 1003.52 606.144 1006.03 606.144C1008.43 606.144 1010.57 605.624 1012.43 604.584C1014.3 603.543 1015.86 602 1017.11 599.955C1018.41 597.91 1019.38 595.416 1020.02 592.474C1020.7 589.496 1021.04 586.088 1021.04 582.249Z" fill="white"/>
<path d="M1092.52 541.453H1111.41V592.636C1111.41 598.735 1110.13 603.902 1107.59 608.136C1105.04 612.334 1101.47 615.509 1096.88 617.662C1092.28 619.815 1086.88 620.891 1080.68 620.891C1074.54 620.891 1069.14 619.815 1064.48 617.662C1059.85 615.509 1056.22 612.334 1053.6 608.136C1051.02 603.902 1049.73 598.735 1049.73 592.636V541.453H1068.67V592.636C1068.67 595.865 1069.14 598.502 1070.07 600.547C1071.01 602.556 1072.37 604.028 1074.16 604.96C1075.96 605.893 1078.13 606.36 1080.68 606.36C1083.26 606.36 1085.43 605.893 1087.19 604.96C1088.95 604.028 1090.27 602.556 1091.17 600.547C1092.07 598.502 1092.52 595.865 1092.52 592.636V541.453Z" fill="white"/>
<path d="M1154.57 593.228H1135.09V578.643H1154.57C1157.22 578.643 1159.38 578.194 1161.03 577.297C1162.68 576.4 1163.88 575.162 1164.63 573.584C1165.42 571.969 1165.82 570.157 1165.82 568.148C1165.82 565.995 1165.42 564.004 1164.63 562.174C1163.88 560.344 1162.68 558.873 1161.03 557.761C1159.38 556.613 1157.22 556.039 1154.57 556.039H1142.19V619.815H1123.3V541.453H1154.57C1160.85 541.453 1166.25 542.602 1170.77 544.898C1175.33 547.194 1178.82 550.352 1181.26 554.37C1183.7 558.353 1184.92 562.909 1184.92 568.04C1184.92 573.099 1183.7 577.512 1181.26 581.28C1178.82 585.047 1175.33 587.989 1170.77 590.106C1166.25 592.187 1160.85 593.228 1154.57 593.228Z" fill="white"/>
<rect x="839.259" y="766.777" width="303.111" height="18.3704" fill="white"/>
<g opacity="0.5" filter="url(#filter2_f_663_23)">
<path d="M773.891 410.432C878.538 420.942 950.342 385.159 934.269 330.508C918.195 275.857 820.332 223.033 715.685 212.523C611.038 202.013 539.234 237.796 555.307 292.447C571.38 347.098 669.244 399.921 773.891 410.432Z" fill="url(#paint7_linear_663_23)" fill-opacity="0.4"/>
<path d="M803.918 370.056C672.854 339.797 557.231 355.877 545.666 405.97C534.101 456.063 630.974 521.201 762.037 551.459C893.101 581.718 1008.72 565.638 1020.29 515.545C1031.85 465.452 934.981 400.314 803.918 370.056Z" fill="url(#paint8_linear_663_23)" fill-opacity="0.6"/>
<path d="M636.192 425.947C505.128 395.689 389.505 411.768 377.94 461.861C366.375 511.954 463.248 577.092 594.312 607.35C725.375 637.609 840.999 621.53 852.563 571.436C864.128 521.343 767.256 456.205 636.192 425.947Z" fill="url(#paint9_linear_663_23)" fill-opacity="0.5"/>
</g>
</g>
<defs>
<filter id="filter0_f_663_23" x="695.786" y="381.691" width="884.222" height="651.938" filterUnits="userSpaceOnUse" color-interpolation-filters="sRGB">
<feFlood flood-opacity="0" result="BackgroundImageFix"/>
<feBlend mode="normal" in="SourceGraphic" in2="BackgroundImageFix" result="shape"/>
<feGaussianBlur stdDeviation="60" result="effect1_foregroundBlur_663_23"/>
</filter>
<filter id="filter1_f_663_23" x="748.369" y="-13.5542" width="825.665" height="702.788" filterUnits="userSpaceOnUse" color-interpolation-filters="sRGB">
<feFlood flood-opacity="0" result="BackgroundImageFix"/>
<feBlend mode="normal" in="SourceGraphic" in2="BackgroundImageFix" result="shape"/>
<feGaussianBlur stdDeviation="60" result="effect1_foregroundBlur_663_23"/>
</filter>
<filter id="filter2_f_663_23" x="257.004" y="90.6909" width="884.222" height="651.938" filterUnits="userSpaceOnUse" color-interpolation-filters="sRGB">
<feFlood flood-opacity="0" result="BackgroundImageFix"/>
<feBlend mode="normal" in="SourceGraphic" in2="BackgroundImageFix" result="shape"/>
<feGaussianBlur stdDeviation="60" result="effect1_foregroundBlur_663_23"/>
</filter>
<linearGradient id="paint0_linear_663_23" x1="914.803" y1="622.54" x2="1244.27" y2="483.464" gradientUnits="userSpaceOnUse">
<stop stop-color="#001AFF"/>
<stop offset="1" stop-color="#6EE5C2"/>
</linearGradient>
<linearGradient id="paint1_linear_663_23" x1="845.172" y1="782.898" x2="1157.17" y2="897.666" gradientUnits="userSpaceOnUse">
<stop stop-color="#FFC83A"/>
<stop offset="0.504191" stop-color="#FF008A"/>
<stop offset="1" stop-color="#6100FF"/>
</linearGradient>
<linearGradient id="paint2_linear_663_23" x1="1012.9" y1="838.789" x2="1324.9" y2="953.557" gradientUnits="userSpaceOnUse">
<stop stop-color="#FFC83A"/>
<stop offset="0.504191" stop-color="#FF008A"/>
<stop offset="1" stop-color="#6100FF"/>
</linearGradient>
<linearGradient id="paint3_linear_663_23" x1="1275.16" y1="535.033" x2="920.416" y2="489.79" gradientUnits="userSpaceOnUse">
<stop stop-color="#001AFF"/>
<stop offset="1" stop-color="#6EE5C2"/>
</linearGradient>
<linearGradient id="paint4_linear_663_23" x1="1415.92" y1="431.352" x2="1203.79" y2="175.388" gradientUnits="userSpaceOnUse">
<stop stop-color="#FFC83A"/>
<stop offset="0.504191" stop-color="#FF008A"/>
<stop offset="1" stop-color="#6100FF"/>
</linearGradient>
<linearGradient id="paint5_linear_663_23" x1="1298.97" y1="298.772" x2="1086.84" y2="42.8074" gradientUnits="userSpaceOnUse">
<stop stop-color="#FFC83A"/>
<stop offset="0.504191" stop-color="#FF008A"/>
<stop offset="1" stop-color="#6100FF"/>
</linearGradient>
<radialGradient id="paint6_angular_663_23" cx="0" cy="0" r="1" gradientUnits="userSpaceOnUse" gradientTransform="translate(940.296 445.296) rotate(31.3496) scale(318.144)">
<stop offset="0.242444" stop-color="#F237D4"/>
<stop offset="0.345233" stop-color="#37AFF3"/>
<stop offset="0.565" stop-color="#5137F3"/>
<stop offset="0.865" stop-color="#37EA7F"/>
</radialGradient>
<linearGradient id="paint7_linear_663_23" x1="922.208" y1="331.54" x2="592.743" y2="192.464" gradientUnits="userSpaceOnUse">
<stop stop-color="#001AFF"/>
<stop offset="1" stop-color="#6EE5C2"/>
</linearGradient>
<linearGradient id="paint8_linear_663_23" x1="991.839" y1="491.898" x2="679.837" y2="606.666" gradientUnits="userSpaceOnUse">
<stop stop-color="#FFC83A"/>
<stop offset="0.504191" stop-color="#FF008A"/>
<stop offset="1" stop-color="#6100FF"/>
</linearGradient>
<linearGradient id="paint9_linear_663_23" x1="824.113" y1="547.789" x2="512.112" y2="662.557" gradientUnits="userSpaceOnUse">
<stop stop-color="#FFC83A"/>
<stop offset="0.504191" stop-color="#FF008A"/>
<stop offset="1" stop-color="#6100FF"/>
</linearGradient>
<clipPath id="clip0_663_23">
<rect width="2000" height="1000" fill="white"/>
</clipPath>
</defs>
</svg>
