<svg width="45" height="45" viewBox="0 0 45 45" fill="none" xmlns="http://www.w3.org/2000/svg">
<path d="M18.8889 0L35.2472 9.44445V28.3333L18.8889 37.7778L2.53063 28.3333V9.44445L18.8889 0Z" fill="white"/>
<path d="M18.8889 0L35.2472 9.44445V28.3333L18.8889 37.7778L2.53063 28.3333V9.44445L18.8889 0Z" fill="url(#paint0_angular_663_18)"/>
<rect x="10.5555" y="10" width="34.4444" height="34.4444" fill="black"/>
<path d="M12.5944 12.4827H13.5254L14.5833 15.7802L15.6413 12.4827H16.5723L14.9609 17.2222H14.2057L12.5944 12.4827ZM12.028 12.4827H12.9915L13.1706 16.1155V17.2222H12.028V12.4827ZM16.1751 12.4827H17.1419V17.2222H15.9961V16.1155L16.1751 12.4827Z" fill="white"/>
<path d="M21.1361 16.3433V17.2222H18.61V16.3433H21.1361ZM19.0169 12.4827V17.2222H17.8743V12.4827H19.0169ZM20.8105 14.3642V15.2138H18.61V14.3642H20.8105ZM21.1458 12.4827V13.3648H18.61V12.4827H21.1458Z" fill="white"/>
<path d="M25.4818 14.6897V16.6363C25.4015 16.7253 25.2778 16.8208 25.1107 16.9228C24.9457 17.0226 24.7374 17.1083 24.4857 17.1799C24.2339 17.2515 23.9377 17.2874 23.597 17.2874C23.2823 17.2874 22.997 17.2374 22.7409 17.1376C22.4848 17.0356 22.2645 16.887 22.0801 16.6917C21.8978 16.4942 21.7567 16.2533 21.6569 15.969C21.5592 15.6825 21.5104 15.3548 21.5104 14.9859V14.7222C21.5104 14.3533 21.5603 14.0256 21.6602 13.7392C21.76 13.4527 21.9 13.2118 22.0801 13.0165C22.2624 12.819 22.4761 12.6693 22.7214 12.5673C22.9688 12.4653 23.24 12.4143 23.5352 12.4143C23.9714 12.4143 24.3262 12.4838 24.5996 12.6226C24.873 12.7594 25.0803 12.9492 25.2214 13.1923C25.3624 13.4332 25.4481 13.712 25.4785 14.0289H24.3815C24.3598 13.8726 24.3186 13.7403 24.2578 13.6318C24.1992 13.5211 24.1146 13.4375 24.0039 13.3811C23.8932 13.3225 23.75 13.2932 23.5742 13.2932C23.4375 13.2932 23.3127 13.3225 23.1999 13.3811C23.0892 13.4397 22.9948 13.5287 22.9167 13.648C22.8385 13.7652 22.7778 13.9128 22.7344 14.0907C22.6931 14.2687 22.6725 14.477 22.6725 14.7157V14.9859C22.6725 15.2225 22.6921 15.4297 22.7311 15.6077C22.7724 15.7856 22.8331 15.9343 22.9134 16.0536C22.9959 16.1708 23.1 16.2598 23.2259 16.3206C23.354 16.3792 23.5048 16.4084 23.6784 16.4084C23.7999 16.4084 23.9041 16.3987 23.9909 16.3792C24.0777 16.3574 24.1493 16.3314 24.2057 16.301C24.2643 16.2685 24.3088 16.2381 24.3392 16.2099V15.4742H23.5449V14.6897H25.4818Z" fill="white"/>
<path d="M28.1576 13.4788L27.002 17.2222H25.7747L27.5163 12.4827H28.2943L28.1576 13.4788ZM29.1146 17.2222L27.9557 13.4788L27.806 12.4827H28.5938L30.3451 17.2222H29.1146ZM29.069 15.4547V16.3368H26.6374V15.4547H29.069Z" fill="white"/>
<path d="M14.7233 21.7285H15.8626C15.8474 22.0584 15.7585 22.3492 15.5957 22.6009C15.4329 22.8527 15.2072 23.0491 14.9186 23.1901C14.6322 23.329 14.2936 23.3985 13.903 23.3985C13.5862 23.3985 13.303 23.3453 13.0534 23.239C12.806 23.1326 12.5955 22.9796 12.4219 22.78C12.2504 22.5803 12.1191 22.3384 12.028 22.0541C11.939 21.7698 11.8945 21.4497 11.8945 21.0938V20.8366C11.8945 20.4807 11.9412 20.1606 12.0345 19.8763C12.13 19.5899 12.2645 19.3468 12.4382 19.1472C12.6139 18.9453 12.8244 18.7913 13.0697 18.6849C13.3149 18.5786 13.5872 18.5254 13.8867 18.5254C14.299 18.5254 14.6474 18.5992 14.9316 18.7468C15.2159 18.8943 15.4362 19.0972 15.5924 19.3555C15.7487 19.6116 15.8409 19.9035 15.8691 20.2311H14.7298C14.7255 20.0532 14.6951 19.9045 14.6387 19.7852C14.5822 19.6637 14.4933 19.5725 14.3717 19.5117C14.2502 19.451 14.0885 19.4206 13.8867 19.4206C13.7457 19.4206 13.623 19.4466 13.5189 19.4987C13.4147 19.5508 13.3279 19.6333 13.2585 19.7461C13.189 19.859 13.1369 20.0055 13.1022 20.1856C13.0697 20.3635 13.0534 20.5784 13.0534 20.8301V21.0938C13.0534 21.3455 13.0686 21.5604 13.099 21.7383C13.1293 21.9163 13.1782 22.0617 13.2454 22.1745C13.3127 22.2874 13.3995 22.3709 13.5059 22.4252C13.6144 22.4772 13.7467 22.5033 13.903 22.5033C14.0766 22.5033 14.2231 22.4762 14.3424 22.4219C14.4618 22.3655 14.554 22.2808 14.6191 22.168C14.6842 22.053 14.719 21.9065 14.7233 21.7285Z" fill="white"/>
<path d="M16.403 18.5938H18.2682C18.6328 18.5938 18.9497 18.648 19.2188 18.7565C19.4878 18.865 19.6951 19.0256 19.8405 19.2383C19.9881 19.451 20.0619 19.7136 20.0619 20.0261C20.0619 20.2973 20.0195 20.5241 19.9349 20.7064C19.8503 20.8887 19.732 21.0395 19.5801 21.1589C19.4303 21.2761 19.2556 21.3726 19.056 21.4486L18.6816 21.6602H17.1159L17.1094 20.778H18.2682C18.4136 20.778 18.5341 20.752 18.6296 20.6999C18.725 20.6478 18.7967 20.574 18.8444 20.4785C18.8943 20.3809 18.9193 20.2648 18.9193 20.1302C18.9193 19.9935 18.8943 19.8763 18.8444 19.7787C18.7945 19.681 18.7207 19.6061 18.623 19.5541C18.5276 19.502 18.4093 19.4759 18.2682 19.4759H17.5456V23.3334H16.403V18.5938ZM18.9974 23.3334L17.9492 21.237L19.1602 21.2305L20.2214 23.2845V23.3334H18.9974Z" fill="white"/>
<path d="M24.0137 22.4545V23.3334H21.4876V22.4545H24.0137ZM21.8945 18.5938V23.3334H20.752V18.5938H21.8945ZM23.6882 20.4753V21.3249H21.4876V20.4753H23.6882ZM24.0234 18.5938V19.4759H21.4876V18.5938H24.0234Z" fill="white"/>
<path d="M26.4909 19.5899L25.3353 23.3334H24.1081L25.8496 18.5938H26.6276L26.4909 19.5899ZM27.4479 23.3334L26.2891 19.5899L26.1393 18.5938H26.9271L28.6784 23.3334H27.4479ZM27.4023 21.5658V22.4479H24.9707V21.5658H27.4023Z" fill="white"/>
<path d="M30.931 18.5938V23.3334H29.7884V18.5938H30.931ZM32.3568 18.5938V19.4759H28.3952V18.5938H32.3568Z" fill="white"/>
<path d="M34.056 18.5938V23.3334H32.9167V18.5938H34.056Z" fill="white"/>
<path d="M36.6536 22.2168L37.64 18.5938H38.9193L37.321 23.3334H36.4941L36.6536 22.2168ZM35.7585 18.5938L36.7448 22.2168L36.9108 23.3334H36.0742L34.4857 18.5938H35.7585Z" fill="white"/>
<path d="M42.5293 22.4545V23.3334H40.0033V22.4545H42.5293ZM40.4102 18.5938V23.3334H39.2676V18.5938H40.4102ZM42.2038 20.4753V21.3249H40.0033V20.4753H42.2038ZM42.5391 18.5938V19.4759H40.0033V18.5938H42.5391Z" fill="white"/>
<path d="M15.9049 26.9119V28.8585C15.8247 28.9475 15.701 29.043 15.5339 29.145C15.3689 29.2448 15.1606 29.3305 14.9089 29.4022C14.6571 29.4738 14.3609 29.5096 14.0202 29.5096C13.7055 29.5096 13.4201 29.4597 13.1641 29.3598C12.908 29.2578 12.6877 29.1092 12.5033 28.9139C12.321 28.7164 12.1799 28.4755 12.0801 28.1912C11.9824 27.9048 11.9336 27.5771 11.9336 27.2081V26.9445C11.9336 26.5755 11.9835 26.2479 12.0833 25.9614C12.1832 25.6749 12.3231 25.4341 12.5033 25.2387C12.6855 25.0413 12.8993 24.8915 13.1445 24.7895C13.3919 24.6875 13.6632 24.6365 13.9583 24.6365C14.3945 24.6365 14.7493 24.706 15.0228 24.8449C15.2962 24.9816 15.5035 25.1715 15.6445 25.4145C15.7856 25.6554 15.8713 25.9343 15.9017 26.2511H14.8047C14.783 26.0949 14.7418 25.9625 14.681 25.854C14.6224 25.7433 14.5378 25.6597 14.4271 25.6033C14.3164 25.5447 14.1732 25.5154 13.9974 25.5154C13.8607 25.5154 13.7359 25.5447 13.623 25.6033C13.5124 25.6619 13.418 25.7509 13.3398 25.8703C13.2617 25.9874 13.201 26.135 13.1576 26.313C13.1163 26.4909 13.0957 26.6992 13.0957 26.938V27.2081C13.0957 27.4447 13.1152 27.6519 13.1543 27.8299C13.1955 28.0078 13.2563 28.1565 13.3366 28.2759C13.4191 28.393 13.5232 28.482 13.6491 28.5428C13.7771 28.6014 13.928 28.6307 14.1016 28.6307C14.2231 28.6307 14.3273 28.6209 14.4141 28.6014C14.5009 28.5797 14.5725 28.5536 14.6289 28.5232C14.6875 28.4907 14.732 28.4603 14.7624 28.4321V27.6964H13.9681V26.9119H15.9049Z" fill="white"/>
<path d="M16.5723 24.7049H18.4375C18.8021 24.7049 19.1189 24.7591 19.388 24.8676C19.6571 24.9762 19.8644 25.1367 20.0098 25.3494C20.1573 25.5621 20.2311 25.8247 20.2311 26.1372C20.2311 26.4084 20.1888 26.6352 20.1042 26.8175C20.0195 26.9998 19.9013 27.1506 19.7494 27.27C19.5996 27.3872 19.4249 27.4838 19.2253 27.5597L18.8509 27.7713H17.2852L17.2786 26.8891H18.4375C18.5829 26.8891 18.7033 26.8631 18.7988 26.811C18.8943 26.7589 18.9659 26.6851 19.0137 26.5897C19.0636 26.492 19.0885 26.3759 19.0885 26.2413C19.0885 26.1046 19.0636 25.9874 19.0137 25.8898C18.9638 25.7921 18.89 25.7173 18.7923 25.6652C18.6968 25.6131 18.5786 25.5871 18.4375 25.5871H17.7148V29.4445H16.5723V24.7049ZM19.1667 29.4445L18.1185 27.3481L19.3294 27.3416L20.3906 29.3956V29.4445H19.1667Z" fill="white"/>
<path d="M24.9316 26.9803V27.1723C24.9316 27.5348 24.8806 27.8603 24.7786 28.1489C24.6788 28.4354 24.5367 28.6806 24.3522 28.8846C24.1678 29.0864 23.9497 29.2416 23.6979 29.3501C23.4462 29.4564 23.1684 29.5096 22.8646 29.5096C22.5586 29.5096 22.2786 29.4564 22.0247 29.3501C21.773 29.2416 21.5538 29.0864 21.3672 28.8846C21.1827 28.6806 21.0395 28.4354 20.9375 28.1489C20.8377 27.8603 20.7878 27.5348 20.7878 27.1723V26.9803C20.7878 26.6179 20.8377 26.2923 20.9375 26.0037C21.0395 25.7151 21.1816 25.4699 21.3639 25.268C21.5484 25.064 21.7665 24.9089 22.0182 24.8025C22.2721 24.694 22.5521 24.6398 22.8581 24.6398C23.1619 24.6398 23.4397 24.694 23.6914 24.8025C23.9453 24.9089 24.1645 25.064 24.349 25.268C24.5334 25.4699 24.6767 25.7151 24.7786 26.0037C24.8806 26.2923 24.9316 26.6179 24.9316 26.9803ZM23.7728 27.1723V26.9738C23.7728 26.7394 23.7522 26.5332 23.7109 26.3553C23.6719 26.1752 23.6133 26.0243 23.5352 25.9028C23.457 25.7813 23.3605 25.6901 23.2454 25.6294C23.1326 25.5664 23.0035 25.535 22.8581 25.535C22.7062 25.535 22.5738 25.5664 22.4609 25.6294C22.3481 25.6901 22.2537 25.7813 22.1777 25.9028C22.1018 26.0243 22.0443 26.1752 22.0052 26.3553C21.9683 26.5332 21.9499 26.7394 21.9499 26.9738V27.1723C21.9499 27.4045 21.9683 27.6107 22.0052 27.7908C22.0443 27.9688 22.1018 28.1196 22.1777 28.2433C22.2559 28.367 22.3513 28.4603 22.4642 28.5232C22.5792 28.5862 22.7127 28.6176 22.8646 28.6176C23.01 28.6176 23.1391 28.5862 23.252 28.5232C23.3648 28.4603 23.4592 28.367 23.5352 28.2433C23.6133 28.1196 23.6719 27.9688 23.7109 27.7908C23.7522 27.6107 23.7728 27.4045 23.7728 27.1723Z" fill="white"/>
<path d="M28.0957 24.7049H29.2383V27.8006C29.2383 28.1695 29.1612 28.482 29.0072 28.7381C28.8531 28.992 28.6372 29.1841 28.3594 29.3143C28.0816 29.4445 27.755 29.5096 27.3796 29.5096C27.0085 29.5096 26.6819 29.4445 26.3997 29.3143C26.1198 29.1841 25.9006 28.992 25.7422 28.7381C25.5859 28.482 25.5078 28.1695 25.5078 27.8006V24.7049H26.6536V27.8006C26.6536 27.9959 26.6819 28.1554 26.7383 28.2791C26.7947 28.4006 26.8772 28.4896 26.9857 28.546C27.0942 28.6025 27.2255 28.6307 27.3796 28.6307C27.5358 28.6307 27.6671 28.6025 27.7734 28.546C27.8798 28.4896 27.9601 28.4006 28.0143 28.2791C28.0686 28.1554 28.0957 27.9959 28.0957 27.8006V24.7049Z" fill="white"/>
<path d="M31.849 27.8364H30.6706V26.9542H31.849C32.0096 26.9542 32.1398 26.9271 32.2396 26.8729C32.3394 26.8186 32.4121 26.7437 32.4577 26.6482C32.5054 26.5506 32.5293 26.441 32.5293 26.3195C32.5293 26.1893 32.5054 26.0688 32.4577 25.9581C32.4121 25.8475 32.3394 25.7585 32.2396 25.6912C32.1398 25.6218 32.0096 25.5871 31.849 25.5871H31.1003V29.4445H29.9577V24.7049H31.849C32.2287 24.7049 32.5553 24.7743 32.8288 24.9132C33.1044 25.0521 33.316 25.2431 33.4635 25.4861C33.6111 25.727 33.6849 26.0026 33.6849 26.313C33.6849 26.619 33.6111 26.8859 33.4635 27.1137C33.316 27.3416 33.1044 27.5196 32.8288 27.6476C32.5553 27.7735 32.2287 27.8364 31.849 27.8364Z" fill="white"/>
<rect x="12.7778" y="38.3335" width="18.3333" height="1.11111" fill="white"/>
<defs>
<radialGradient id="paint0_angular_663_18" cx="0" cy="0" r="1" gradientUnits="userSpaceOnUse" gradientTransform="translate(18.8889 18.8889) rotate(31.3496) scale(19.2426)">
<stop offset="0.242444" stop-color="#F237D4"/>
<stop offset="0.345233" stop-color="#37AFF3"/>
<stop offset="0.565" stop-color="#5137F3"/>
<stop offset="0.865" stop-color="#37EA7F"/>
</radialGradient>
</defs>
</svg>
