<svg width="32" height="32" viewBox="0 0 32 32" fill="none" xmlns="http://www.w3.org/2000/svg">
<path d="M13.4321 0L25.0646 6.71605V20.1481L13.4321 26.8642L1.79956 20.1481V6.71605L13.4321 0Z" fill="url(#paint0_angular_662_8)"/>
<rect x="7.50616" y="7.11108" width="24.4938" height="24.4938" fill="black"/>
<path d="M10.6258 10.3087H12.1705L13.9259 15.7802L15.6813 10.3087H17.2261L14.5525 18.1729H13.2994L10.6258 10.3087ZM9.68597 10.3087H11.2847L11.5818 16.3365V18.1729H9.68597V10.3087ZM16.5671 10.3087H18.1713V18.1729H16.2701V16.3365L16.5671 10.3087Z" fill="white"/>
<path d="M23.8588 15.5101H25.7492C25.724 16.0575 25.5764 16.54 25.3063 16.9577C25.0363 17.3754 24.6618 17.7012 24.1829 17.9353C23.7076 18.1657 23.1459 18.281 22.4977 18.281C21.972 18.281 21.5021 18.1927 21.088 18.0163C20.6775 17.8399 20.3282 17.586 20.0401 17.2547C19.7557 16.9235 19.5378 16.522 19.3866 16.0503C19.239 15.5785 19.1651 15.0474 19.1651 14.4569V14.0302C19.1651 13.4397 19.2426 12.9085 19.3974 12.4368C19.5558 11.9615 19.7791 11.5582 20.0671 11.2269C20.3588 10.8921 20.7081 10.6364 21.115 10.46C21.5219 10.2835 21.9738 10.1953 22.4707 10.1953C23.1549 10.1953 23.7328 10.3177 24.2045 10.5626C24.6762 10.8075 25.0417 11.1441 25.3009 11.5726C25.5602 11.9975 25.7132 12.4818 25.76 13.0256H23.8696C23.8624 12.7303 23.812 12.4836 23.7184 12.2856C23.6248 12.0839 23.4771 11.9327 23.2755 11.8319C23.0738 11.7311 22.8056 11.6807 22.4707 11.6807C22.2366 11.6807 22.0332 11.7239 21.8604 11.8103C21.6875 11.8967 21.5435 12.0335 21.4283 12.2208C21.313 12.408 21.2266 12.6511 21.169 12.9499C21.115 13.2452 21.088 13.6017 21.088 14.0194V14.4569C21.088 14.8746 21.1132 15.2311 21.1636 15.5263C21.214 15.8216 21.295 16.0629 21.4067 16.2501C21.5183 16.4373 21.6623 16.576 21.8388 16.666C22.0188 16.7524 22.2384 16.7956 22.4977 16.7956C22.7858 16.7956 23.0288 16.7506 23.2269 16.6606C23.4249 16.567 23.5779 16.4265 23.686 16.2393C23.794 16.0485 23.8516 15.8054 23.8588 15.5101Z" fill="white"/>
<rect x="28.8395" y="31.605" width="24.4938" height="0.790123" transform="rotate(-90 28.8395 31.605)" fill="white"/>
<path d="M11.2469 23.838C11.9239 22.9558 12.3938 22.2231 12.6566 21.6397C12.6747 21.6001 12.6981 21.5713 12.7269 21.5533C12.7593 21.5317 12.7953 21.5209 12.8349 21.5209C12.8961 21.5209 12.9465 21.5425 12.9861 21.5857C13.0257 21.6253 13.0455 21.6721 13.0455 21.7262C13.0455 21.7514 13.0401 21.7766 13.0293 21.8018C12.8709 22.1619 12.6458 22.5633 12.3542 23.0062C12.0625 23.4491 11.6934 23.9497 11.2469 24.5078C11.2469 24.7346 11.2487 24.9615 11.2523 25.1883C11.2559 25.4152 11.2577 25.6637 11.2577 25.9337C11.2577 26.2038 11.2505 26.4702 11.2361 26.7331C11.2253 26.9996 11.2037 27.2516 11.1713 27.4893C11.1389 27.7305 11.0939 27.952 11.0363 28.1536C10.9823 28.3589 10.9103 28.5353 10.8202 28.6829C10.7338 28.8342 10.6276 28.9512 10.5016 29.034C10.3791 29.1204 10.2333 29.1637 10.0641 29.1637C9.8228 29.1637 9.63736 29.0718 9.50773 28.8882C9.3781 28.7046 9.31329 28.4435 9.31329 28.105C9.31329 27.925 9.32949 27.7287 9.3619 27.5163C9.3979 27.3074 9.44832 27.0914 9.51313 26.8681C9.57795 26.6449 9.65536 26.418 9.74538 26.1876C9.83901 25.9607 9.94163 25.7393 10.0533 25.5232C10.1649 25.3072 10.2855 25.1001 10.4151 24.9021C10.5484 24.704 10.6888 24.524 10.8364 24.362C10.84 24.1099 10.8418 23.8596 10.8418 23.6112C10.8454 23.3627 10.8508 23.1341 10.858 22.9252C10.75 23.0621 10.6204 23.1701 10.4691 23.2493C10.3215 23.3285 10.1739 23.3681 10.0262 23.3681C9.90022 23.3681 9.78499 23.3447 9.68057 23.2979C9.57975 23.2475 9.49333 23.1791 9.42131 23.0927C9.34929 23.0026 9.29348 22.8982 9.25387 22.7794C9.21426 22.6606 9.19446 22.5309 9.19446 22.3905C9.19446 22.1096 9.24127 21.863 9.33489 21.6505C9.43211 21.4345 9.55454 21.2544 9.70217 21.1104C9.84981 20.9664 10.0118 20.8584 10.1883 20.7863C10.3683 20.7143 10.5412 20.6783 10.7068 20.6783C10.8184 20.6783 10.9211 20.6927 11.0147 20.7215C11.1083 20.7503 11.1875 20.7827 11.2523 20.8187C11.3207 20.8548 11.373 20.889 11.409 20.9214C11.445 20.9538 11.4648 20.9718 11.4684 20.9754C11.508 21.0186 11.5278 21.0672 11.5278 21.1212C11.5278 21.1752 11.508 21.2238 11.4684 21.2671C11.4288 21.3067 11.382 21.3265 11.3279 21.3265C11.2775 21.3265 11.2289 21.3067 11.1821 21.2671C11.1677 21.2562 11.1479 21.2418 11.1227 21.2238C11.1011 21.2022 11.0705 21.1806 11.0309 21.159C10.9949 21.1374 10.9499 21.1194 10.8958 21.105C10.8454 21.0906 10.7842 21.0834 10.7122 21.0834C10.6042 21.0834 10.4854 21.1086 10.3557 21.159C10.2261 21.2058 10.1055 21.2815 9.99384 21.3859C9.88222 21.4903 9.78859 21.6253 9.71298 21.791C9.63736 21.953 9.59955 22.1493 9.59955 22.3797C9.59955 22.5525 9.63736 22.693 9.71298 22.801C9.78859 22.9054 9.90562 22.9576 10.0641 22.9576C10.1397 22.9576 10.2189 22.936 10.3017 22.8928C10.3881 22.8496 10.4709 22.783 10.5502 22.693C10.6294 22.603 10.6978 22.4895 10.7554 22.3527C10.8166 22.2159 10.8598 22.0538 10.885 21.8666C10.8922 21.8162 10.9157 21.7748 10.9553 21.7424C10.9949 21.7064 11.0417 21.6883 11.0957 21.6883C11.1569 21.6883 11.2037 21.71 11.2361 21.7532C11.2721 21.7964 11.2901 21.845 11.2901 21.899C11.2901 21.9026 11.2883 21.9584 11.2847 22.0664C11.2811 22.1709 11.2775 22.3113 11.2739 22.4877C11.2703 22.6642 11.2649 22.8694 11.2577 23.1035C11.2541 23.3339 11.2505 23.5788 11.2469 23.838ZM10.8364 25.0209C10.6672 25.255 10.5142 25.5088 10.3773 25.7825C10.2405 26.0597 10.1235 26.3388 10.0262 26.6197C9.92903 26.9005 9.85341 27.1724 9.7994 27.4353C9.74898 27.7017 9.72378 27.9394 9.72378 28.1482C9.72378 28.2815 9.73458 28.3877 9.75619 28.4669C9.78139 28.5461 9.8102 28.6073 9.84261 28.6505C9.87861 28.6937 9.91642 28.7226 9.95603 28.737C9.99924 28.7514 10.0389 28.7586 10.0749 28.7586C10.1865 28.7586 10.2837 28.7136 10.3665 28.6235C10.4493 28.5335 10.5196 28.4129 10.5772 28.2616C10.6348 28.114 10.6816 27.943 10.7176 27.7485C10.7536 27.5541 10.7806 27.3524 10.7986 27.1436C10.8166 26.9383 10.8292 26.7331 10.8364 26.5279C10.8436 26.3226 10.8472 26.1336 10.8472 25.9607C10.8472 25.8059 10.8472 25.6511 10.8472 25.4962C10.8472 25.3414 10.8436 25.1829 10.8364 25.0209Z" fill="white"/>
<path d="M13.2292 21.0888C13.2148 21.186 13.1968 21.2779 13.1752 21.3643C13.1536 21.4471 13.132 21.5209 13.1104 21.5857C13.0923 21.6469 13.0761 21.6973 13.0617 21.737C13.0473 21.7766 13.0383 21.7982 13.0347 21.8018C12.9987 21.8846 12.9357 21.926 12.8457 21.926C12.7953 21.926 12.7485 21.908 12.7053 21.872C12.6621 21.8324 12.6404 21.7838 12.6404 21.7262C12.6404 21.7046 12.644 21.6883 12.6512 21.6775C12.6585 21.6667 12.6693 21.6451 12.6837 21.6127C12.6981 21.5803 12.7161 21.5263 12.7377 21.4507C12.7593 21.3751 12.7863 21.258 12.8187 21.0996C12.7575 21.0996 12.6945 21.0978 12.6296 21.0942C12.5648 21.0906 12.5054 21.078 12.4514 21.0564C12.3938 21.0348 12.347 21.0006 12.311 20.9538C12.275 20.907 12.257 20.8422 12.257 20.7593C12.257 20.6981 12.275 20.6153 12.311 20.5109C12.3434 20.4065 12.3884 20.3038 12.446 20.203C12.5036 20.1022 12.5684 20.0158 12.6404 19.9437C12.7125 19.8681 12.7845 19.8303 12.8565 19.8303C12.9393 19.8303 13.0059 19.8609 13.0563 19.9221C13.1104 19.9834 13.1518 20.059 13.1806 20.149C13.2094 20.2354 13.2292 20.3272 13.24 20.4245C13.2544 20.5217 13.2616 20.6063 13.2616 20.6783C13.3228 20.6783 13.3822 20.6783 13.4398 20.6783C13.501 20.6747 13.5587 20.6729 13.6127 20.6729C13.8179 20.6729 13.9746 20.7179 14.0826 20.8079C14.1906 20.898 14.2446 21.0456 14.2446 21.2508C14.2446 21.3337 14.2392 21.4201 14.2284 21.5101C14.2176 21.6001 14.205 21.6937 14.1906 21.791C14.1762 21.8846 14.1636 21.9782 14.1528 22.0718C14.142 22.1655 14.1366 22.2573 14.1366 22.3473C14.1366 22.4769 14.1546 22.585 14.1906 22.6714C14.2266 22.7542 14.2716 22.8208 14.3256 22.8712C14.3796 22.9216 14.4373 22.9576 14.4985 22.9792C14.5597 22.9972 14.6155 23.0062 14.6659 23.0062C14.8207 23.0062 14.9666 22.9558 15.1034 22.855C15.2402 22.7542 15.3663 22.6336 15.4815 22.4931C15.5967 22.3491 15.6993 22.1979 15.7894 22.0394C15.883 21.881 15.9604 21.7424 16.0216 21.6235C16.0396 21.5911 16.0648 21.5659 16.0972 21.5479C16.1296 21.5299 16.1639 21.5209 16.1999 21.5209C16.2647 21.5209 16.3151 21.5425 16.3511 21.5857C16.3871 21.6253 16.4051 21.6703 16.4051 21.7208C16.4051 21.7568 16.3979 21.7892 16.3835 21.818C16.3007 21.9656 16.2035 22.133 16.0918 22.3203C15.9838 22.5039 15.8596 22.6768 15.7191 22.8388C15.5787 23.0008 15.4203 23.1377 15.2438 23.2493C15.071 23.3609 14.8802 23.4167 14.6713 23.4167C14.5417 23.4167 14.4193 23.3915 14.304 23.3411C14.1888 23.2943 14.088 23.2259 14.0016 23.1359C13.9187 23.0423 13.8521 22.9288 13.8017 22.7956C13.7513 22.6588 13.7261 22.5057 13.7261 22.3365C13.7261 22.1565 13.7441 21.9782 13.7801 21.8018C13.8161 21.6217 13.8341 21.4507 13.8341 21.2887C13.8341 21.2202 13.8179 21.1698 13.7855 21.1374C13.7567 21.1014 13.6901 21.0834 13.5857 21.0834C13.5353 21.0834 13.4794 21.0834 13.4182 21.0834C13.3606 21.0834 13.2976 21.0852 13.2292 21.0888ZM12.8673 20.6891C12.8673 20.6639 12.8655 20.6315 12.8619 20.5919C12.8619 20.5487 12.8583 20.5073 12.8511 20.4677C12.8475 20.4281 12.8403 20.3939 12.8295 20.365C12.8223 20.3362 12.8133 20.3218 12.8025 20.3218C12.7917 20.3218 12.7773 20.3362 12.7593 20.365C12.7449 20.3903 12.7287 20.4227 12.7107 20.4623C12.6927 20.4983 12.6765 20.5379 12.6621 20.5811C12.6476 20.6243 12.6368 20.6603 12.6296 20.6891H12.8673Z" fill="white"/>
<path d="M18.5116 22.7146C18.4216 22.7146 18.3423 22.7074 18.2739 22.693C18.2199 22.801 18.1551 22.9018 18.0795 22.9954C18.0039 23.0855 17.9157 23.1647 17.8148 23.2331C17.7176 23.3015 17.6078 23.3555 17.4854 23.3951C17.3629 23.4347 17.2297 23.4546 17.0857 23.4546C16.9164 23.4546 16.7616 23.4239 16.6212 23.3627C16.4807 23.3051 16.3583 23.2241 16.2539 23.1197C16.1494 23.0116 16.0684 22.8838 16.0108 22.7362C15.9532 22.585 15.9244 22.4193 15.9244 22.2393C15.9244 22.0088 15.9658 21.809 16.0486 21.6397C16.1314 21.4669 16.2269 21.3247 16.3349 21.213C16.4429 21.0978 16.5509 21.0132 16.659 20.9592C16.767 20.9016 16.848 20.8728 16.902 20.8728C16.9632 20.8728 17.0082 20.889 17.0371 20.9214C17.0695 20.9538 17.0857 20.997 17.0857 21.051C17.0857 21.1122 17.0659 21.159 17.0262 21.1914C16.9902 21.2202 16.9434 21.249 16.8858 21.2779C16.8282 21.3067 16.767 21.3481 16.7022 21.4021C16.6374 21.4525 16.5761 21.5173 16.5185 21.5965C16.4645 21.6757 16.4195 21.7694 16.3835 21.8774C16.3475 21.9854 16.3295 22.106 16.3295 22.2393C16.3295 22.3581 16.3475 22.4697 16.3835 22.5741C16.4195 22.675 16.4717 22.7632 16.5401 22.8388C16.6086 22.9108 16.6896 22.9684 16.7832 23.0116C16.8768 23.0513 16.9812 23.0711 17.0965 23.0711C17.3017 23.0711 17.471 23.0243 17.6042 22.9306C17.741 22.8334 17.8454 22.711 17.9175 22.5633C17.705 22.4517 17.5304 22.2933 17.3935 22.088C17.2567 21.8828 17.1883 21.6523 17.1883 21.3967C17.1883 21.1914 17.2369 21.024 17.3341 20.8944C17.4349 20.7647 17.5664 20.6999 17.7284 20.6999C17.8256 20.6999 17.9175 20.7233 18.0039 20.7701C18.0903 20.8169 18.1659 20.8908 18.2307 20.9916C18.2991 21.0924 18.3532 21.222 18.3928 21.3805C18.4324 21.5389 18.4522 21.728 18.4522 21.9476C18.4522 22.0628 18.4378 22.1835 18.409 22.3095C18.4306 22.3131 18.4522 22.3149 18.4738 22.3149C18.4954 22.3149 18.5188 22.3149 18.544 22.3149C18.6664 22.3149 18.7762 22.3005 18.8735 22.2717C18.9707 22.2429 19.0589 22.1997 19.1381 22.1421C19.2173 22.0844 19.2876 22.0106 19.3488 21.9206C19.4136 21.8306 19.4748 21.7262 19.5324 21.6073C19.5432 21.5857 19.5666 21.5659 19.6026 21.5479C19.6386 21.5263 19.6747 21.5155 19.7107 21.5155C19.7575 21.5155 19.8007 21.5353 19.8403 21.5749C19.8835 21.6109 19.9051 21.6595 19.9051 21.7208C19.9051 21.7496 19.8979 21.782 19.8835 21.818C19.8691 21.8504 19.8547 21.881 19.8403 21.9098C19.7791 22.0178 19.7071 22.1222 19.6242 22.2231C19.545 22.3203 19.4496 22.4067 19.338 22.4823C19.23 22.5543 19.1075 22.612 18.9707 22.6552C18.8339 22.6984 18.6808 22.7182 18.5116 22.7146ZM17.588 21.3535C17.588 21.4219 17.597 21.4939 17.615 21.5695C17.633 21.6451 17.66 21.7208 17.696 21.7964C17.7356 21.8684 17.7824 21.9386 17.8364 22.007C17.894 22.0718 17.9607 22.1276 18.0363 22.1745C18.0471 22.0988 18.0525 22.025 18.0525 21.953C18.0525 21.8558 18.0453 21.7568 18.0309 21.6559C18.0165 21.5551 17.9949 21.4633 17.9661 21.3805C17.9409 21.2941 17.9085 21.2256 17.8688 21.1752C17.8292 21.1212 17.7824 21.0942 17.7284 21.0942C17.7068 21.0942 17.678 21.1104 17.642 21.1428C17.606 21.1752 17.588 21.2454 17.588 21.3535Z" fill="white"/>
<path d="M21.3148 22.7038C21.1888 22.909 21.0412 23.0711 20.8719 23.1899C20.7063 23.3087 20.5389 23.3681 20.3696 23.3681C20.2328 23.3681 20.1104 23.3429 20.0023 23.2925C19.8943 23.2421 19.8007 23.1719 19.7215 23.0819C19.6422 22.9882 19.581 22.8766 19.5378 22.747C19.4982 22.6174 19.4784 22.4715 19.4784 22.3095C19.4784 22.0574 19.5018 21.8342 19.5486 21.6397C19.599 21.4453 19.653 21.2833 19.7107 21.1536C19.7683 21.0204 19.8223 20.9196 19.8727 20.8512C19.9231 20.7827 19.9483 20.7485 19.9483 20.7485C19.9663 20.7269 19.9879 20.7107 20.0131 20.6999C20.0419 20.6891 20.0707 20.6837 20.0996 20.6837C20.1572 20.6837 20.204 20.7053 20.24 20.7485C20.2796 20.7881 20.2994 20.835 20.2994 20.889C20.2994 20.9106 20.294 20.9322 20.2832 20.9538C20.276 20.9754 20.267 20.997 20.2562 21.0186C20.2382 21.051 20.2094 21.1014 20.1698 21.1698C20.1302 21.2346 20.0887 21.3211 20.0455 21.4291C20.0023 21.5371 19.9645 21.6649 19.9321 21.8126C19.8997 21.9566 19.8835 22.1222 19.8835 22.3095C19.8835 22.5219 19.9249 22.684 20.0077 22.7956C20.0942 22.9036 20.2148 22.9576 20.3696 22.9576C20.4344 22.9576 20.5082 22.9378 20.5911 22.8982C20.6775 22.855 20.7603 22.7902 20.8395 22.7038C20.9223 22.6174 20.9944 22.5075 21.0556 22.3743C21.1168 22.2411 21.1564 22.0844 21.1744 21.9044L21.2554 20.9754C21.2626 20.9214 21.286 20.8764 21.3256 20.8404C21.3652 20.8043 21.4121 20.7863 21.4661 20.7863C21.5273 20.7863 21.5759 20.8097 21.6119 20.8566C21.6479 20.8998 21.6659 20.9502 21.6659 21.0078L21.5957 21.9044C21.5885 21.98 21.5903 22.079 21.6011 22.2015C21.6155 22.3239 21.6425 22.4445 21.6821 22.5633C21.7217 22.6822 21.7811 22.7848 21.8604 22.8712C21.9396 22.954 22.044 22.9954 22.1736 22.9954C22.2672 22.9954 22.3591 22.972 22.4491 22.9252C22.5391 22.8748 22.6255 22.81 22.7083 22.7308C22.7912 22.6516 22.8668 22.5633 22.9352 22.4661C23.0072 22.3653 23.072 22.2645 23.1296 22.1637C23.1909 22.0628 23.2431 21.9674 23.2863 21.8774C23.3295 21.7838 23.3655 21.7046 23.3943 21.6397C23.4123 21.6001 23.4375 21.5695 23.4699 21.5479C23.5023 21.5263 23.5383 21.5155 23.5779 21.5155C23.6428 21.5155 23.6932 21.5371 23.7292 21.5803C23.7652 21.6235 23.7832 21.6703 23.7832 21.7208C23.7832 21.7496 23.7778 21.7766 23.767 21.8018C23.7526 21.8306 23.7238 21.8918 23.6806 21.9854C23.641 22.0754 23.5869 22.1799 23.5185 22.2987C23.4537 22.4139 23.3745 22.5363 23.2809 22.666C23.1873 22.7956 23.0828 22.9162 22.9676 23.0279C22.8524 23.1359 22.7264 23.2259 22.5895 23.2979C22.4563 23.3663 22.3123 23.4005 22.1574 23.4005C21.945 23.4005 21.7685 23.3411 21.6281 23.2223C21.4877 23.0999 21.3832 22.927 21.3148 22.7038Z" fill="white"/>
<path d="M26.1705 21.8018C26.1705 22.133 26.1111 22.4157 25.9923 22.6498C25.8735 22.8838 25.7276 23.0621 25.5548 23.1845H25.5764C25.7889 23.1845 25.9815 23.1377 26.1543 23.0441C26.3308 22.9468 26.4892 22.8244 26.6296 22.6768C26.7701 22.5255 26.8961 22.3581 27.0077 22.1745C27.1194 21.9908 27.2184 21.8126 27.3048 21.6397C27.3228 21.6001 27.348 21.5695 27.3804 21.5479C27.4164 21.5263 27.4542 21.5155 27.4938 21.5155C27.5551 21.5155 27.6037 21.5371 27.6397 21.5803C27.6757 21.6235 27.6937 21.6703 27.6937 21.7208C27.6937 21.7496 27.6883 21.7766 27.6775 21.8018C27.5839 22.0106 27.4722 22.2213 27.3426 22.4337C27.213 22.6426 27.0617 22.8316 26.8889 23.0008C26.7161 23.1701 26.5216 23.3069 26.3056 23.4113C26.0895 23.5194 25.8501 23.5734 25.5872 23.5734C25.3964 23.5734 25.2109 23.5428 25.0309 23.4816C24.8508 23.4239 24.6924 23.3321 24.5556 23.2061C24.5052 23.1665 24.4619 23.1251 24.4259 23.0819C24.3899 23.0351 24.3611 22.9918 24.3395 22.9522C24.3323 22.945 24.3287 22.9378 24.3287 22.9306C24.3071 22.8982 24.2963 22.864 24.2963 22.828C24.2963 22.7812 24.3125 22.738 24.3449 22.6984C24.3485 22.6912 24.3521 22.6876 24.3557 22.6876C24.3593 22.684 24.3629 22.6804 24.3665 22.6768C24.4025 22.6444 24.4421 22.6264 24.4854 22.6228H24.5016C24.5196 22.6228 24.5322 22.6246 24.5394 22.6282C24.543 22.6282 24.5448 22.63 24.5448 22.6336C24.5484 22.6336 24.552 22.6336 24.5556 22.6336C24.5664 22.6336 24.579 22.6372 24.5934 22.6444C24.597 22.648 24.6006 22.6498 24.6042 22.6498C24.6366 22.6714 24.6636 22.6984 24.6852 22.7308C24.7104 22.774 24.7392 22.8136 24.7716 22.8496C24.8004 22.8784 24.8346 22.9054 24.8742 22.9306C24.9139 22.9522 24.9589 22.963 25.0093 22.963C25.0993 22.963 25.1893 22.936 25.2793 22.882C25.3694 22.828 25.4504 22.7506 25.5224 22.6498C25.5944 22.5489 25.652 22.4265 25.6952 22.2825C25.742 22.1384 25.7654 21.9782 25.7654 21.8018C25.7654 21.6721 25.751 21.5623 25.7222 21.4723C25.697 21.3787 25.6628 21.3031 25.6196 21.2454C25.58 21.1878 25.5368 21.1464 25.49 21.1212C25.4432 21.0924 25.3982 21.078 25.355 21.078C25.2577 21.078 25.1587 21.1284 25.0579 21.2292C24.9607 21.3301 24.8634 21.4579 24.7662 21.6127C24.669 21.7676 24.5718 21.9386 24.4746 22.1258C24.3809 22.3131 24.2855 22.4949 24.1883 22.6714C24.1811 23.2547 24.1703 23.811 24.1559 24.3404C24.1451 24.8697 24.1235 25.3612 24.0911 25.8149C24.0623 26.2686 24.0208 26.6791 23.9668 27.0464C23.9128 27.4137 23.839 27.7269 23.7454 27.9862C23.6518 28.249 23.5365 28.4507 23.3997 28.5911C23.2629 28.7316 23.0954 28.8018 22.8974 28.8018C22.8362 28.8018 22.766 28.7892 22.6867 28.764C22.6075 28.7388 22.5337 28.6865 22.4653 28.6073C22.3969 28.5317 22.3393 28.4219 22.2925 28.2779C22.2456 28.1338 22.2222 27.9412 22.2222 27.6999C22.2222 27.3939 22.26 27.0392 22.3357 26.6359C22.4113 26.2326 22.5193 25.8041 22.6597 25.3504C22.7966 24.9003 22.9604 24.4376 23.1512 23.9623C23.3421 23.487 23.5527 23.0243 23.7832 22.5741C23.7832 22.4481 23.7832 22.3239 23.7832 22.2015C23.7868 22.079 23.7886 21.9602 23.7886 21.845C23.7418 21.899 23.686 21.926 23.6212 21.926C23.5599 21.926 23.5113 21.9044 23.4753 21.8612C23.4393 21.818 23.4213 21.7712 23.4213 21.7208C23.4213 21.6955 23.4267 21.6685 23.4375 21.6397C23.5239 21.4417 23.5905 21.2544 23.6374 21.078C23.6842 20.898 23.7184 20.7413 23.74 20.6081C23.7652 20.4713 23.7796 20.3632 23.7832 20.284C23.7868 20.2048 23.7886 20.1634 23.7886 20.1598C23.7886 20.1058 23.8084 20.059 23.848 20.0194C23.8876 19.9798 23.9362 19.96 23.9938 19.96C24.0479 19.96 24.0947 19.9798 24.1343 20.0194C24.1739 20.0554 24.1937 20.1022 24.1937 20.1598V21.818C24.2765 21.6775 24.3593 21.5389 24.4421 21.4021C24.525 21.2653 24.6114 21.1428 24.7014 21.0348C24.795 20.9268 24.894 20.8404 24.9985 20.7755C25.1065 20.7071 25.2253 20.6729 25.355 20.6729C25.4774 20.6729 25.589 20.7017 25.6898 20.7593C25.7907 20.8169 25.8771 20.8962 25.9491 20.997C26.0211 21.0978 26.0751 21.2184 26.1111 21.3589C26.1507 21.4957 26.1705 21.6433 26.1705 21.8018ZM23.7724 23.5356C23.596 23.9317 23.4357 24.3296 23.2917 24.7292C23.1512 25.1289 23.0324 25.5142 22.9352 25.8851C22.8344 26.256 22.757 26.6035 22.7029 26.9275C22.6489 27.2516 22.6219 27.5361 22.6219 27.7809C22.6219 27.8422 22.6255 27.9088 22.6327 27.9808C22.6399 28.0528 22.6543 28.1194 22.6759 28.1806C22.6975 28.2418 22.7282 28.2923 22.7678 28.3319C22.8074 28.3751 22.8596 28.3967 22.9244 28.3967C23.0432 28.3967 23.1458 28.3211 23.2323 28.1698C23.3187 28.0222 23.3907 27.8205 23.4483 27.5649C23.5095 27.3128 23.5599 27.0212 23.5996 26.6899C23.6392 26.3622 23.6698 26.0183 23.6914 25.6583C23.7166 25.2982 23.7346 24.9345 23.7454 24.5672C23.7562 24.2035 23.7652 23.8596 23.7724 23.5356Z" fill="white"/>
<defs>
<radialGradient id="paint0_angular_662_8" cx="0" cy="0" r="1" gradientUnits="userSpaceOnUse" gradientTransform="translate(13.4321 13.4321) rotate(31.3496) scale(13.6836)">
<stop offset="0.225726" stop-color="#37AFF3"/>
<stop offset="0.565" stop-color="#5137F3"/>
<stop offset="1" stop-color="#F237D4"/>
</radialGradient>
</defs>
</svg>
