<svg width="163" height="161" viewBox="0 0 163 161" fill="none" xmlns="http://www.w3.org/2000/svg">
<path d="M68.4198 0L127.673 34.2099V102.63L68.4198 136.84L9.16651 102.63V34.2099L68.4198 0Z" fill="url(#paint0_angular_624_33)"/>
<rect x="38.2346" y="36.2222" width="124.765" height="124.765" fill="black"/>
<path d="M45.6197 45.2149H48.992L52.8241 57.1593L56.6562 45.2149H60.0284L54.1918 62.3827H51.4563L45.6197 45.2149ZM43.5681 45.2149H47.0582L47.7067 58.3738V62.3827H43.5681V45.2149ZM58.5899 45.2149H62.0919V62.3827H57.9414V58.3738L58.5899 45.2149Z" fill="white"/>
<path d="M76.5595 59.1991V62.3827H67.4096V59.1991H76.5595ZM68.8835 45.2149V62.3827H64.7449V45.2149H68.8835ZM75.3804 52.0301V55.1076H67.4096V52.0301H75.3804ZM76.5949 45.2149V48.4103H67.4096V45.2149H76.5949Z" fill="white"/>
<path d="M92.3006 53.2093V60.2603C92.0098 60.5826 91.5617 60.9285 90.9564 61.2979C90.359 61.6595 89.6044 61.97 88.6926 62.2294C87.7807 62.4888 86.7077 62.6185 85.4736 62.6185C84.3338 62.6185 83.3001 62.4377 82.3725 62.0762C81.445 61.7067 80.6471 61.1682 79.9789 60.4608C79.3186 59.7454 78.8077 58.8729 78.4461 57.8432C78.0924 56.8055 77.9155 55.6186 77.9155 54.2822V53.3272C77.9155 51.9908 78.0963 50.8039 78.4579 49.7663C78.8195 48.7286 79.3265 47.8561 79.9789 47.1486C80.6392 46.4333 81.4135 45.8909 82.3018 45.5215C83.1979 45.152 84.1805 44.9673 85.2496 44.9673C86.8296 44.9673 88.1148 45.2188 89.1052 45.7219C90.0957 46.2171 90.8464 46.905 91.3573 47.7854C91.8683 48.6579 92.1788 49.668 92.2888 50.8157H88.3152C88.2366 50.2497 88.0873 49.7702 87.8672 49.3772C87.6549 48.9763 87.3484 48.6736 86.9475 48.4692C86.5466 48.257 86.0278 48.1509 85.3911 48.1509C84.8958 48.1509 84.4438 48.257 84.0351 48.4692C83.6342 48.6815 83.2922 49.0038 83.0093 49.4361C82.7263 49.8606 82.5062 50.3951 82.3489 51.0397C82.1996 51.6843 82.1249 52.4389 82.1249 53.3036V54.2822C82.1249 55.1391 82.1957 55.8898 82.3372 56.5343C82.4865 57.1789 82.7066 57.7174 82.9975 58.1497C83.2962 58.5742 83.6735 58.8965 84.1294 59.1166C84.5932 59.3288 85.1395 59.4349 85.7684 59.4349C86.2086 59.4349 86.5859 59.3996 86.9003 59.3288C87.2147 59.2502 87.4741 59.1559 87.6785 59.0458C87.8908 58.9279 88.0519 58.8179 88.162 58.7157V56.0509H85.2849V53.2093H92.3006Z" fill="white"/>
<path d="M101.993 48.823L97.8071 62.3827H93.3618L99.6701 45.2149H102.488L101.993 48.823ZM105.459 62.3827L101.262 48.823L100.719 45.2149H103.573L109.917 62.3827H105.459ZM105.294 55.9802V59.1755H96.4865V55.9802H105.294Z" fill="white"/>
<path d="M53.3311 78.7055H57.458C57.4029 79.9003 57.0806 80.9537 56.4911 81.8655C55.9015 82.7774 55.084 83.4888 54.0385 83.9997C53.0009 84.5028 51.7747 84.7543 50.3597 84.7543C49.2121 84.7543 48.1862 84.5618 47.2823 84.1766C46.3861 83.7914 45.6236 83.2372 44.9948 82.514C44.3738 81.7909 43.8982 80.9144 43.5681 79.8846C43.2458 78.8549 43.0846 77.6954 43.0846 76.4063V75.4748C43.0846 74.1856 43.2536 73.0261 43.5916 71.9964C43.9375 70.9588 44.4249 70.0784 45.0537 69.3552C45.6905 68.6241 46.4529 68.066 47.3412 67.6808C48.2295 67.2957 49.216 67.1031 50.3008 67.1031C51.7943 67.1031 53.056 67.3704 54.0857 67.9049C55.1155 68.4394 55.9133 69.1744 56.4793 70.1098C57.0453 71.0374 57.3794 72.0946 57.4815 73.2816H53.3547C53.3389 72.637 53.2289 72.0986 53.0245 71.6662C52.8201 71.226 52.4978 70.8959 52.0576 70.6758C51.6174 70.4557 51.0318 70.3456 50.3008 70.3456C49.7898 70.3456 49.3457 70.44 48.9684 70.6286C48.5911 70.8173 48.2766 71.116 48.0251 71.5247C47.7735 71.9335 47.5849 72.4641 47.4591 73.1165C47.3412 73.7611 47.2823 74.5393 47.2823 75.4512V76.4063C47.2823 77.3181 47.3373 78.0963 47.4473 78.7409C47.5574 79.3855 47.7342 79.9121 47.9779 80.3209C48.2216 80.7297 48.536 81.0323 48.9212 81.2288C49.3143 81.4175 49.7938 81.5118 50.3597 81.5118C50.9886 81.5118 51.5192 81.4135 51.9515 81.217C52.3839 81.0126 52.7179 80.7061 52.9538 80.2973C53.1896 79.8807 53.3154 79.3501 53.3311 78.7055Z" fill="white"/>
<path d="M59.4153 67.3507H66.1716C67.4922 67.3507 68.6398 67.5472 69.6146 67.9403C70.5893 68.3333 71.34 68.915 71.8667 69.6853C72.4012 70.4557 72.6685 71.4068 72.6685 72.5388C72.6685 73.5214 72.5152 74.3428 72.2086 75.0031C71.902 75.6634 71.4736 76.2097 70.9234 76.6421C70.381 77.0666 69.7482 77.4164 69.025 77.6915L67.669 78.4579H61.9975L61.9739 75.2625H66.1716C66.6982 75.2625 67.1345 75.1682 67.4804 74.9795C67.8263 74.7909 68.0857 74.5236 68.2586 74.1777C68.4394 73.824 68.5298 73.4035 68.5298 72.9161C68.5298 72.4209 68.4394 71.9964 68.2586 71.6427C68.0778 71.2889 67.8105 71.0177 67.4568 70.8291C67.1109 70.6404 66.6825 70.5461 66.1716 70.5461H63.554V84.5185H59.4153V67.3507ZM68.8128 84.5185L65.0161 76.9251L69.4023 76.9015L73.2462 84.3417V84.5185H68.8128Z" fill="white"/>
<path d="M86.9828 81.3349V84.5185H77.833V81.3349H86.9828ZM79.3069 67.3507V84.5185H75.1682V67.3507H79.3069ZM85.8037 74.1659V77.2434H77.833V74.1659H85.8037ZM87.0182 67.3507V70.5461H77.833V67.3507H87.0182Z" fill="white"/>
<path d="M95.9559 70.9588L91.77 84.5185H87.3248L93.633 67.3507H96.4511L95.9559 70.9588ZM99.4224 84.5185L95.2248 70.9588L94.6824 67.3507H97.5359L103.879 84.5185H99.4224ZM99.2574 78.116V81.3113H90.4494V78.116H99.2574Z" fill="white"/>
<path d="M112.039 67.3507V84.5185H107.9V67.3507H112.039ZM117.203 67.3507V70.5461H102.854V67.3507H117.203Z" fill="white"/>
<path d="M123.358 67.3507V84.5185H119.231V67.3507H123.358Z" fill="white"/>
<path d="M132.768 80.4742L136.34 67.3507H140.974L135.185 84.5185H132.19L132.768 80.4742ZM129.525 67.3507L133.098 80.4742L133.699 84.5185H130.669L124.915 67.3507H129.525Z" fill="white"/>
<path d="M154.051 81.3349V84.5185H144.901V81.3349H154.051ZM146.375 67.3507V84.5185H142.236V67.3507H146.375ZM152.871 74.1659V77.2434H144.901V74.1659H152.871ZM154.086 67.3507V70.5461H144.901V67.3507H154.086Z" fill="white"/>
<path d="M57.6112 97.4809V104.532C57.3204 104.854 56.8723 105.2 56.2671 105.57C55.6696 105.931 54.915 106.242 54.0032 106.501C53.0913 106.76 52.0183 106.89 50.7842 106.89C49.6444 106.89 48.6107 106.709 47.6831 106.348C46.7556 105.978 45.9577 105.44 45.2896 104.732C44.6293 104.017 44.1183 103.145 43.7567 102.115C43.403 101.077 43.2261 99.8902 43.2261 98.5538V97.5988C43.2261 96.2624 43.4069 95.0755 43.7685 94.0379C44.1301 93.0002 44.6371 92.1277 45.2896 91.4202C45.9499 90.7049 46.7241 90.1625 47.6124 89.7931C48.5085 89.4236 49.4911 89.2389 50.5602 89.2389C52.1402 89.2389 53.4254 89.4904 54.4159 89.9935C55.4063 90.4887 56.157 91.1766 56.668 92.057C57.1789 92.9295 57.4894 93.9396 57.5995 95.0873H53.6259C53.5473 94.5213 53.3979 94.0418 53.1778 93.6488C52.9656 93.2479 52.659 92.9452 52.2581 92.7408C51.8572 92.5286 51.3384 92.4225 50.7017 92.4225C50.2064 92.4225 49.7545 92.5286 49.3457 92.7408C48.9448 92.9531 48.6029 93.2754 48.3199 93.7077C48.0369 94.1322 47.8168 94.6667 47.6596 95.3113C47.5102 95.9559 47.4355 96.7105 47.4355 97.5752V98.5538C47.4355 99.4107 47.5063 100.161 47.6478 100.806C47.7971 101.451 48.0172 101.989 48.3081 102.421C48.6068 102.846 48.9841 103.168 49.44 103.388C49.9038 103.6 50.4501 103.707 51.079 103.707C51.5192 103.707 51.8965 103.671 52.2109 103.6C52.5254 103.522 52.7848 103.427 52.9891 103.317C53.2014 103.2 53.3625 103.089 53.4726 102.987V100.323H50.5955V97.4809H57.6112Z" fill="white"/>
<path d="M60.0284 89.4865H66.7847C68.1053 89.4865 69.253 89.683 70.2277 90.0761C71.2024 90.4691 71.9531 91.0508 72.4798 91.8211C73.0143 92.5915 73.2816 93.5426 73.2816 94.6746C73.2816 95.6572 73.1283 96.4786 72.8218 97.1389C72.5152 97.7992 72.0868 98.3455 71.5365 98.7779C70.9941 99.2024 70.3613 99.5522 69.6382 99.8273L68.2822 100.594H62.6107L62.5871 97.3983H66.7847C67.3114 97.3983 67.7477 97.304 68.0935 97.1153C68.4394 96.9267 68.6988 96.6594 68.8717 96.3135C69.0525 95.9598 69.1429 95.5393 69.1429 95.0519C69.1429 94.5567 69.0525 94.1322 68.8717 93.7785C68.6909 93.4247 68.4237 93.1535 68.0699 92.9649C67.7241 92.7762 67.2957 92.6819 66.7847 92.6819H64.1671V106.654H60.0284V89.4865ZM69.4259 106.654L65.6292 99.0609L70.0155 99.0373L73.8594 106.477V106.654H69.4259Z" fill="white"/>
<path d="M90.3079 97.7285V98.4241C90.3079 99.7369 90.1232 100.916 89.7538 101.961C89.3922 102.999 88.8773 103.887 88.2091 104.626C87.541 105.357 86.751 105.919 85.8391 106.312C84.9273 106.698 83.9211 106.89 82.8206 106.89C81.7122 106.89 80.6982 106.698 79.7785 106.312C78.8666 105.919 78.0727 105.357 77.3967 104.626C76.7285 103.887 76.2097 102.999 75.8403 101.961C75.4787 100.916 75.2979 99.7369 75.2979 98.4241V97.7285C75.2979 96.4157 75.4787 95.2366 75.8403 94.1911C76.2097 93.1457 76.7246 92.2574 77.3849 91.5264C78.0531 90.7874 78.8431 90.2254 79.7549 89.8402C80.6746 89.4472 81.6886 89.2507 82.797 89.2507C83.8975 89.2507 84.9037 89.4472 85.8155 89.8402C86.7352 90.2254 87.5292 90.7874 88.1973 91.5264C88.8655 92.2574 89.3843 93.1457 89.7538 94.1911C90.1232 95.2366 90.3079 96.4157 90.3079 97.7285ZM86.1103 98.4241V97.7049C86.1103 96.8559 86.0356 96.1092 85.8863 95.4646C85.7448 94.8121 85.5325 94.2658 85.2496 93.8256C84.9666 93.3854 84.6168 93.0553 84.2001 92.8352C83.7914 92.6072 83.3237 92.4932 82.797 92.4932C82.2468 92.4932 81.7673 92.6072 81.3585 92.8352C80.9497 93.0553 80.6078 93.3854 80.3327 93.8256C80.0575 94.2658 79.8492 94.8121 79.7077 95.4646C79.5741 96.1092 79.5073 96.8559 79.5073 97.7049V98.4241C79.5073 99.2652 79.5741 100.012 79.7077 100.664C79.8492 101.309 80.0575 101.855 80.3327 102.303C80.6157 102.751 80.9615 103.089 81.3703 103.317C81.7869 103.545 82.2703 103.659 82.8206 103.659C83.3473 103.659 83.815 103.545 84.2237 103.317C84.6325 103.089 84.9744 102.751 85.2496 102.303C85.5325 101.855 85.7448 101.309 85.8863 100.664C86.0356 100.012 86.1103 99.2652 86.1103 98.4241Z" fill="white"/>
<path d="M101.769 89.4865H105.908V100.7C105.908 102.036 105.628 103.168 105.07 104.096C104.512 105.015 103.73 105.711 102.724 106.183C101.718 106.654 100.535 106.89 99.1748 106.89C97.8307 106.89 96.6476 106.654 95.6257 106.183C94.6117 105.711 93.8177 105.015 93.2439 104.096C92.6779 103.168 92.395 102.036 92.395 100.7V89.4865H96.5454V100.7C96.5454 101.407 96.6476 101.985 96.852 102.433C97.0564 102.873 97.3551 103.196 97.7481 103.4C98.1411 103.604 98.6167 103.707 99.1748 103.707C99.7408 103.707 100.216 103.604 100.602 103.4C100.987 103.196 101.278 102.873 101.474 102.433C101.671 101.985 101.769 101.407 101.769 100.7V89.4865Z" fill="white"/>
<path d="M115.364 100.83H111.096V97.6341H115.364C115.946 97.6341 116.417 97.5359 116.779 97.3394C117.141 97.1428 117.404 96.8717 117.569 96.5258C117.742 96.172 117.828 95.7751 117.828 95.3349C117.828 94.8632 117.742 94.427 117.569 94.0261C117.404 93.6252 117.141 93.3029 116.779 93.0592C116.417 92.8077 115.946 92.6819 115.364 92.6819H112.652V106.654H108.513V89.4865H115.364C116.74 89.4865 117.923 89.738 118.913 90.2411C119.911 90.7442 120.678 91.436 121.212 92.3164C121.747 93.1889 122.014 94.1872 122.014 95.3113C122.014 96.4197 121.747 97.3865 121.212 98.2119C120.678 99.0373 119.911 99.6819 118.913 100.146C117.923 100.602 116.74 100.83 115.364 100.83Z" fill="white"/>
<rect x="46.2839" y="138.852" width="66.4074" height="4.02469" fill="white"/>
<defs>
<radialGradient id="paint0_angular_624_33" cx="0" cy="0" r="1" gradientUnits="userSpaceOnUse" gradientTransform="translate(68.4198 68.4198) rotate(31.3496) scale(69.7009)">
<stop offset="0.242444" stop-color="#F237D4"/>
<stop offset="0.345233" stop-color="#37AFF3"/>
<stop offset="0.565" stop-color="#5137F3"/>
<stop offset="0.865" stop-color="#37EA7F"/>
</radialGradient>
</defs>
</svg>
